<svg width="20" height="20" viewBox="0 0 20 20" fill="none" xmlns="http://www.w3.org/2000/svg">
<g clip-path="url(#clip0_219_2117)">
<path d="M8.333 16.8862C5.75975 16.2655 3.73426 14.24 3.11368 11.6667M16.8861 11.6667C16.2655 14.24 14.2401 16.2655 11.6668 16.8861M11.6667 3.11389C14.24 3.73449 16.2655 5.76002 16.8861 8.33332M3.11385 8.33341C3.73444 5.76007 5.76 3.7345 8.33334 3.11389M2.99984 11.6667H3.6665C4.13321 11.6667 4.36657 11.6667 4.54483 11.5759C4.70163 11.496 4.82911 11.3685 4.90901 11.2117C4.99984 11.0335 4.99984 10.8001 4.99984 10.3334V9.66675C4.99984 9.20004 4.99984 8.96668 4.90901 8.78842C4.82911 8.63162 4.70163 8.50414 4.54483 8.42424C4.36657 8.33341 4.13321 8.33341 3.6665 8.33341H2.99984C2.53313 8.33341 2.29977 8.33341 2.12151 8.42424C1.96471 8.50414 1.83723 8.63162 1.75733 8.78842C1.6665 8.96668 1.6665 9.20004 1.6665 9.66675V10.3334C1.6665 10.8001 1.6665 11.0335 1.75733 11.2117C1.83723 11.3685 1.96471 11.496 2.12151 11.5759C2.29977 11.6667 2.53313 11.6667 2.99984 11.6667ZM16.3332 11.6667H16.9998C17.4665 11.6667 17.6999 11.6667 17.8782 11.5759C18.035 11.496 18.1624 11.3685 18.2423 11.2117C18.3332 11.0335 18.3332 10.8001 18.3332 10.3334V9.66675C18.3332 9.20004 18.3332 8.96668 18.2423 8.78842C18.1624 8.63162 18.035 8.50414 17.8782 8.42424C17.6999 8.33341 17.4665 8.33341 16.9998 8.33341H16.3332C15.8665 8.33341 15.6331 8.33341 15.4548 8.42424C15.298 8.50414 15.1706 8.63162 15.0907 8.78842C14.9998 8.96668 14.9998 9.20004 14.9998 9.66675V10.3334C14.9998 10.8001 14.9998 11.0335 15.0907 11.2117C15.1706 11.3685 15.298 11.496 15.4548 11.5759C15.6331 11.6667 15.8665 11.6667 16.3332 11.6667ZM9.6665 5.00008H10.3332C10.7999 5.00008 11.0332 5.00008 11.2115 4.90925C11.3683 4.82936 11.4958 4.70188 11.5757 4.54507C11.6665 4.36681 11.6665 4.13346 11.6665 3.66675V3.00008C11.6665 2.53337 11.6665 2.30002 11.5757 2.12176C11.4958 1.96495 11.3683 1.83747 11.2115 1.75758C11.0332 1.66675 10.7999 1.66675 10.3332 1.66675H9.6665C9.19979 1.66675 8.96644 1.66675 8.78818 1.75758C8.63138 1.83747 8.50389 1.96495 8.424 2.12176C8.33317 2.30002 8.33317 2.53337 8.33317 3.00008V3.66675C8.33317 4.13346 8.33317 4.36681 8.424 4.54507C8.50389 4.70188 8.63138 4.82936 8.78818 4.90925C8.96644 5.00008 9.19979 5.00008 9.6665 5.00008ZM9.6665 18.3334H10.3332C10.7999 18.3334 11.0332 18.3334 11.2115 18.2426C11.3683 18.1627 11.4958 18.0352 11.5757 17.8784C11.6665 17.7001 11.6665 17.4668 11.6665 17.0001V16.3334C11.6665 15.8667 11.6665 15.6333 11.5757 15.4551C11.4958 15.2983 11.3683 15.1708 11.2115 15.0909C11.0332 15.0001 10.7999 15.0001 10.3332 15.0001H9.6665C9.19979 15.0001 8.96644 15.0001 8.78818 15.0909C8.63138 15.1708 8.50389 15.2983 8.424 15.4551C8.33317 15.6333 8.33317 15.8667 8.33317 16.3334V17.0001C8.33317 17.4668 8.33317 17.7001 8.424 17.8784C8.50389 18.0352 8.63138 18.1627 8.78818 18.2426C8.96644 18.3334 9.19979 18.3334 9.6665 18.3334Z" stroke="currentColor" stroke-width="1.6" stroke-linecap="round" stroke-linejoin="round" fill="none"/>
</g>
<defs>
<clipPath id="clip0_219_2117">
<rect width="20" height="20" fill="currentColor"/>
</clipPath>
</defs>
</svg>
